{"accessors":[{"bufferView":0,"byteOffset":0,"componentType":5126,"count":10937,"max":[0.991899311542511,0.991899192333221,0.991899192333221],"min":[-0.99189907312393,-0.99189919233322,-0.99189919233322],"normalized":false,"type":"VEC3"},{"bufferView":1,"byteOffset":0,"componentType":5126,"count":10937,"max":[0.999809682369232,0.998227000236511,1,1],"min":[-1,-1,-0.99375826120377,1],"normalized":false,"type":"VEC4"},{"bufferView":2,"byteOffset":0,"componentType":5126,"count":10937,"max":[1,1,1],"min":[-1,-1,-1],"normalized":false,"type":"VEC3"},{"bufferView":3,"byteOffset":0,"componentType":5123,"count":32760,"max":[5479],"min":[0],"normalized":false,"type":"SCALAR"},{"bufferView":4,"byteOffset":0,"componentType":5126,"count":4874,"max":[0.977652370929718,0.977652370929718,0.977652370929718],"min":[-0.97765237092972,-0.97765237092972,-0.97765237092972],"normalized":false,"type":"VEC3"},{"bufferView":5,"byteOffset":0,"componentType":5126,"count":4874,"max":[0.999595999717712,0.999554932117462,1,1],"min":[-1,-1,-0.96087008714676,1],"normalized":false,"type":"VEC4"},{"bufferView":6,"byteOffset":0,"componentType":5126,"count":4874,"max":[1,1,1],"min":[-1,-1,-1],"normalized":false,"type":"VEC3"},{"bufferView":7,"byteOffset":0,"componentType":5123,"count":16380,"max":[2771],"min":[0],"normalized":false,"type":"SCALAR"},{"bufferView":8,"byteOffset":0,"componentType":5126,"count":139148,"max":[0.86876517534256,0.868765115737915,0.86876517534256],"min":[-0.86887127161026,-0.86876511573792,-0.86876517534256],"normalized":false,"type":"VEC3"},{"bufferView":9,"byteOffset":0,"componentType":5126,"count":139148,"max":[0.996302604675293,0.999246895313263,1,1],"min":[-1,-1,-0.97881251573563,1],"normalized":false,"type":"VEC4"},{"bufferView":10,"byteOffset":0,"componentType":5126,"count":139148,"max":[1,1,1],"min":[-1,-1,-1],"normalized":false,"type":"VEC3"},{"bufferView":11,"byteOffset":0,"componentType":5125,"count":825600,"max":[137599],"min":[0],"normalized":false,"type":"SCALAR"}],"asset":{"generator":"Godot Engine v4.3.stable.official@77dcf97d82cbfe4e4615475fa52ca03da645dbd8","version":"2.0"},"bufferViews":[{"buffer":0,"byteLength":131244,"byteOffset":0,"byteStride":12,"target":34962},{"buffer":0,"byteLength":174992,"byteOffset":131244,"byteStride":16,"target":34962},{"buffer":0,"byteLength":131244,"byteOffset":306236,"byteStride":12,"target":34962},{"buffer":0,"byteLength":65520,"byteOffset":437480,"target":34963},{"buffer":0,"byteLength":58488,"byteOffset":503000,"byteStride":12,"target":34962},{"buffer":0,"byteLength":77984,"byteOffset":561488,"byteStride":16,"target":34962},{"buffer":0,"byteLength":58488,"byteOffset":639472,"byteStride":12,"target":34962},{"buffer":0,"byteLength":32760,"byteOffset":697960,"target":34963},{"buffer":0,"byteLength":1669776,"byteOffset":730720,"byteStride":12,"target":34962},{"buffer":0,"byteLength":2226368,"byteOffset":2400496,"byteStride":16,"target":34962},{"buffer":0,"byteLength":1669776,"byteOffset":4626864,"byteStride":12,"target":34962},{"buffer":0,"byteLength":3302400,"byteOffset":6296640,"target":34963}],"buffers":[{"byteLength":9599040,"uri":"soccerball_only0.bin"}],"extensionsUsed":["GODOT_single_root"],"materials":[{"doubleSided":true,"extensions":{},"name":"White","pbrMetallicRoughness":{"baseColorFactor":[0.367246448993683,0.367246448993683,0.367246448993683,1],"metallicFactor":0.5,"roughnessFactor":0.0960784330964088}},{"doubleSided":true,"extensions":{},"name":"Black","pbrMetallicRoughness":{"baseColorFactor":[0.00562293874099851,0.00562293874099851,0.00562293874099851,1],"metallicFactor":0.5,"roughnessFactor":0.0960784330964088}},{"doubleSided":true,"extensions":{},"name":"Material_001","pbrMetallicRoughness":{"baseColorFactor":[0.367246448993683,0.367246448993683,0.367246448993683,1],"metallicFactor":0.5,"roughnessFactor":0.0960784330964088}}],"meshes":[{"extras":{"targetNames":[]},"primitives":[{"attributes":{"NORMAL":2,"POSITION":0,"TANGENT":1},"indices":3,"material":0,"mode":4},{"attributes":{"NORMAL":6,"POSITION":4,"TANGENT":5},"indices":7,"material":1,"mode":4}]},{"extras":{"targetNames":[]},"primitives":[{"attributes":{"NORMAL":10,"POSITION":8,"TANGENT":9},"indices":11,"material":2,"mode":4}]}],"nodes":[{"children":[1,2,3],"name":"untitled"},{"mesh":0,"name":"Solid_001"},{"mesh":1,"name":"Solid_000","scale":[1.09364998340607,1.09364998340607,1.09364998340607],"translation":[0.0000637397024547681,-0.00000016763801,0.0000000596045985901128]},{"name":"AnimationPlayer"}],"scene":0,"scenes":[{"nodes":[0]}]}